# xmcd
#
# Track frame offsets:
#	150
#	14080
#	23997
#	36407
#	44580
#	56902
#	70477
#	81842
#	88870
#	100575
#	109567
#	118570
#	128960
#	139552
#	151745
#	161320
#	169625
#	181587
#	192555
#	202377
#
# Disc length: 2887 seconds
#
# Revision: 1
# Processed by: cddbd v1.4PL0 Copyright (c) Steve Scherf et al.
# Submitted via: EasyCDDAExtractor 5.0.6
#
DISCID=180b4514
DTITLE=Willie Nelson - Home is where you're happy
DYEAR=1900
DGENRE=Country
TTITLE0=Home is where you're happy
TTITLE1=I didn't sleep a wink
TTITLE2=Shelter of my arms
TTITLE3=Things to remember
TTITLE4=I can't find the time
TTITLE5=Everything but you
TTITLE6=I'm gonna lose a lot of teardrops
TTITLE7=Both ends of the candle
TTITLE8=Is there something on your mind
TTITLE9=Why are you picking on me
TTITLE10=The ghost
TTITLE11=Broken promises
TTITLE12=Blame it on the times
TTITLE13=Happiness lives next doos
TTITLE14=Building heartaches
TTITLE15=Half a man
TTITLE16=The last letter
TTITLE17=Touch me
TTITLE18=Let's pretend
TTITLE19=Rainy day blues
EXTD=
EXTT0=
EXTT1=
EXTT2=
EXTT3=
EXTT4=
EXTT5=
EXTT6=
EXTT7=
EXTT8=
EXTT9=
EXTT10=
EXTT11=
EXTT12=
EXTT13=
EXTT14=
EXTT15=
EXTT16=
EXTT17=
EXTT18=
EXTT19=
PLAYORDER=
